<?xml version="1.0" standalone="no"?>
<!DOCTYPE svg PUBLIC "-//W3C//DTD SVG 20010904//EN"
 "http://www.w3.org/TR/2001/REC-SVG-20010904/DTD/svg10.dtd">
<svg version="1.0" xmlns="http://www.w3.org/2000/svg"
 width="700.000000pt" height="700.000000pt" viewBox="0 0 700.000000 700.000000"
 preserveAspectRatio="xMidYMid meet">
<metadata>
Created by potrace 1.14, written by Peter Selinger 2001-2017
</metadata>
<g transform="translate(0.000000,700.000000) scale(0.100000,-0.100000)"
fill="#000000" stroke="none">
<path d="M6212 4787 c-4 -36 -41 -94 -89 -137 -26 -25 -193 -162 -371 -304
-254 -204 -321 -263 -315 -275 13 -26 15 -866 3 -940 -13 -76 -38 -127 -87
-181 -32 -36 -519 -408 -618 -473 -22 -14 -61 -32 -87 -38 -79 -21 -126 12
-161 115 -6 18 -13 184 -16 394 l-6 363 -345 -277 c-190 -153 -364 -291 -387
-308 l-43 -30 0 -1242 c0 -827 -3 -1252 -10 -1270 -6 -15 -8 -29 -6 -31 3 -3
24 8 48 25 54 37 2286 1787 2350 1842 51 44 96 124 125 225 16 55 18 147 21
1145 2 978 1 1447 -6 1397z"/>
<path d="M781 3578 c-1 -1331 -2 -1306 57 -1433 34 -71 78 -124 138 -166 24
-16 529 -411 1121 -877 1182 -929 1188 -934 1220 -951 l22 -11 -14 41 c-13 36
-15 220 -15 1278 l-1 1236 -42 26 c-23 14 -573 452 -1222 973 -1192 956 -1231
989 -1254 1070 -6 19 -10 -437 -10 -1186z"/>
</g>
</svg>
